<svg xmlns="http://www.w3.org/2000/svg" width="60" height="60" viewBox="0 0 60 60">
  <g id="icon" transform="translate(-180 -2749)">
    <circle id="楕円形_303" data-name="楕円形 303" cx="30" cy="30" r="30" transform="translate(180 2749)" fill="#fff"/>
    <g id="グループ_91172" data-name="グループ 91172" transform="translate(195.792 2764)">
      <g id="グループ_91173" data-name="グループ 91173" transform="translate(0)">
        <path id="パス_95523" data-name="パス 95523" d="M7.307,5.785A2.893,2.893,0,1,1,10.2,2.893,2.9,2.9,0,0,1,7.307,5.785m0-4.836A1.944,1.944,0,1,0,9.251,2.893,1.946,1.946,0,0,0,7.307.949" transform="translate(-0.959)" fill="#007577"/>
        <path id="パス_95524" data-name="パス 95524" d="M15.746,31.556a1.841,1.841,0,0,1-1.817-1.55l-.692-4.5A1.217,1.217,0,0,0,12.226,24.5l-2.2.09H8.234a4.159,4.159,0,0,1-4.158-3.959l-.427-8.676A3.276,3.276,0,0,1,6.92,8.517h.968a6.716,6.716,0,0,1,4.089,1.4l1.158.9a6.8,6.8,0,0,0,3.626,1.4l2.023.162a1.61,1.61,0,0,1,1.473,1.7,1.648,1.648,0,0,1-1.521,1.557l-2.609.175a7.8,7.8,0,0,1-3.826-.72l-1.864-.875-.38,5.722,4.749,1.422a2.877,2.877,0,0,1,1.957,2.332l.794,5.793A1.83,1.83,0,0,1,16,31.538a1.793,1.793,0,0,1-.257.018m-3.5-8.009a.493.493,0,0,1,.059,0,2.17,2.17,0,0,1,1.867,1.813l.692,4.5a.883.883,0,0,0,1.748-.251l-.794-5.793a1.916,1.916,0,0,0-1.3-1.554l-5.1-1.528a.474.474,0,0,1-.337-.486l.45-6.793a.475.475,0,0,1,.675-.4L12.7,14.228a6.852,6.852,0,0,0,3.36.632l2.609-.175a.679.679,0,0,0,.636-.644.663.663,0,0,0-.6-.722l-2.024-.162a7.743,7.743,0,0,1-4.131-1.6l-1.158-.9a5.763,5.763,0,0,0-3.508-1.2H6.92A2.326,2.326,0,0,0,4.6,11.907l.427,8.675a3.211,3.211,0,0,0,3.21,3.057h1.774l2.222-.091h.02" transform="translate(-0.792 -1.851)" fill="#007577"/>
        <path id="パス_95525" data-name="パス 95525" d="M11.532,26.673h-.009l-9.164-.157A.475.475,0,0,1,1.9,26.1L0,9.619a.475.475,0,0,1,.944-.108L2.791,25.575l8.749.149a.475.475,0,0,1-.008.949" transform="translate(0 -1.976)" fill="#007577"/>
        <path id="パス_95526" data-name="パス 95526" d="M9.038,36.574a.474.474,0,0,1-.474-.474V30.721a.474.474,0,0,1,.949,0V36.1a.474.474,0,0,1-.474.474" transform="translate(-1.861 -6.574)" fill="#007577"/>
        <path id="パス_95527" data-name="パス 95527" d="M10.872,38.067H5.794a.475.475,0,0,1,0-.949h5.078a.475.475,0,0,1,0,.949" transform="translate(-1.156 -8.067)" fill="#007577"/>
        <path id="パス_95528" data-name="パス 95528" d="M19.031,25.668a.474.474,0,0,1-.474-.474V21.927a.474.474,0,1,1,.949,0v3.267a.474.474,0,0,1-.474.474" transform="translate(-4.033 -4.663)" fill="#007577"/>
        <path id="パス_95529" data-name="パス 95529" d="M30.487,34.368a.475.475,0,0,1-.475-.474V22.4H19.031a.475.475,0,0,1,0-.949H30.487a.474.474,0,0,1,.474.474V33.894a.474.474,0,0,1-.474.474" transform="translate(-4.033 -4.663)" fill="#007577"/>
        <path id="パス_95530" data-name="パス 95530" d="M31.237,22.4H17.923a.475.475,0,0,1,0-.949H31.237a.475.475,0,0,1,0,.949" transform="translate(-3.792 -4.663)" fill="#007577"/>
        <path id="パス_95531" data-name="パス 95531" d="M30.3,20.868h-7a.475.475,0,0,1-.43-.677l2.6-5.526a.473.473,0,0,1,.43-.272h7a.474.474,0,0,1,.429.676l-2.6,5.527a.475.475,0,0,1-.43.272m-6.249-.949H30l2.153-4.577H26.206Z" transform="translate(-4.962 -3.128)" fill="#007577"/>
      </g>
    </g>
  </g>
</svg>
