<svg xmlns="http://www.w3.org/2000/svg" width="60" height="60" viewBox="0 0 60 60">
  <g id="icon" transform="translate(-180 -2749)">
    <circle id="楕円形_303" data-name="楕円形 303" cx="30" cy="30" r="30" transform="translate(180 2749)" fill="#edf5f5"/>
    <g id="グループ_91157" data-name="グループ 91157" transform="translate(197.5 2767.19)">
      <g id="グループ_91159" data-name="グループ 91159">
        <path id="パス_95500" data-name="パス 95500" d="M62.207,14.889H58.765a.528.528,0,0,1,0-1.056h3.441a.528.528,0,0,1,0,1.056" transform="translate(-47.986 -11.398)" fill="#007577"/>
        <path id="パス_95501" data-name="パス 95501" d="M22.008,35.017H2.992A3,3,0,0,1,0,32.025v-15.2a3,3,0,0,1,2.992-2.992H4.056a.528.528,0,0,1,0,1.056H2.992a1.938,1.938,0,0,0-1.935,1.935v15.2a1.938,1.938,0,0,0,1.935,1.935H22.008a1.938,1.938,0,0,0,1.935-1.935v-15.2a1.938,1.938,0,0,0-1.935-1.935H20.944a.528.528,0,0,1,0-1.056h1.064A3,3,0,0,1,25,16.825v15.2a3,3,0,0,1-2.992,2.992" transform="translate(0 -11.398)" fill="#007577"/>
        <path id="パス_95502" data-name="パス 95502" d="M24.472,46.523H.528a.528.528,0,0,1,0-1.056H24.472a.528.528,0,0,1,0,1.056" transform="translate(0 -37.464)" fill="#007577"/>
        <path id="パス_95503" data-name="パス 95503" d="M91.214,6.215a1.855,1.855,0,0,1-1.853-1.853V1.853a1.853,1.853,0,0,1,3.706,0V4.362a1.855,1.855,0,0,1-1.853,1.853m0-5.159a.8.8,0,0,0-.8.8V4.362a.8.8,0,1,0,1.593,0V1.853a.8.8,0,0,0-.8-.8" transform="translate(-73.631)" fill="#007577"/>
        <path id="パス_95504" data-name="パス 95504" d="M24.827,66.735H22.875a.528.528,0,0,1,0-1.056h1.952a.528.528,0,0,1,0,1.056" transform="translate(-18.413 -54.118)" fill="#007577"/>
        <path id="パス_95505" data-name="パス 95505" d="M51.575,66.735H49.623a.528.528,0,0,1,0-1.056h1.952a.528.528,0,0,1,0,1.056" transform="translate(-40.453 -54.118)" fill="#007577"/>
        <path id="パス_95506" data-name="パス 95506" d="M78.323,66.735H76.371a.528.528,0,0,1,0-1.056h1.952a.528.528,0,0,1,0,1.056" transform="translate(-62.493 -54.118)" fill="#007577"/>
        <path id="パス_95507" data-name="パス 95507" d="M105.071,66.735h-1.952a.528.528,0,0,1,0-1.056h1.952a.528.528,0,0,1,0,1.056" transform="translate(-84.532 -54.118)" fill="#007577"/>
        <path id="パス_95508" data-name="パス 95508" d="M24.827,87.124H22.875a.528.528,0,0,1,0-1.056h1.952a.528.528,0,0,1,0,1.056" transform="translate(-18.413 -70.918)" fill="#007577"/>
        <path id="パス_95509" data-name="パス 95509" d="M51.575,87.124H49.623a.528.528,0,0,1,0-1.056h1.952a.528.528,0,0,1,0,1.056" transform="translate(-40.453 -70.918)" fill="#007577"/>
        <path id="パス_95510" data-name="パス 95510" d="M78.323,87.124H76.371a.528.528,0,0,1,0-1.056h1.952a.528.528,0,0,1,0,1.056" transform="translate(-62.493 -70.918)" fill="#007577"/>
        <path id="パス_95511" data-name="パス 95511" d="M105.071,87.124h-1.952a.528.528,0,0,1,0-1.056h1.952a.528.528,0,0,1,0,1.056" transform="translate(-84.532 -70.918)" fill="#007577"/>
        <path id="パス_95512" data-name="パス 95512" d="M24.827,107.511H22.875a.528.528,0,1,1,0-1.056h1.952a.528.528,0,0,1,0,1.056" transform="translate(-18.413 -87.716)" fill="#007577"/>
        <path id="パス_95513" data-name="パス 95513" d="M51.575,107.511H49.623a.528.528,0,1,1,0-1.056h1.952a.528.528,0,0,1,0,1.056" transform="translate(-40.453 -87.716)" fill="#007577"/>
        <path id="パス_95514" data-name="パス 95514" d="M78.323,107.511H76.371a.528.528,0,0,1,0-1.056h1.952a.528.528,0,0,1,0,1.056" transform="translate(-62.493 -87.716)" fill="#007577"/>
        <path id="パス_95515" data-name="パス 95515" d="M105.071,107.511h-1.952a.528.528,0,0,1,0-1.056h1.952a.528.528,0,0,1,0,1.056" transform="translate(-84.532 -87.716)" fill="#007577"/>
        <path id="パス_95516" data-name="パス 95516" d="M33.466,6.215a1.855,1.855,0,0,1-1.853-1.853V1.853a1.853,1.853,0,1,1,3.706,0V4.362a1.855,1.855,0,0,1-1.853,1.853m0-5.159a.8.8,0,0,0-.8.8V4.362a.8.8,0,0,0,1.593,0V1.853a.8.8,0,0,0-.8-.8" transform="translate(-26.048)" fill="#007577"/>
      </g>
    </g>
  </g>
</svg>
