<svg xmlns="http://www.w3.org/2000/svg" width="60" height="60" viewBox="0 0 60 60">
  <g id="icon" transform="translate(-180 -2749)">
    <circle id="楕円形_303" data-name="楕円形 303" cx="30" cy="30" r="30" transform="translate(180 2749)" fill="#fff"/>
    <g id="グループ_91169" data-name="グループ 91169" transform="translate(198.363 2764)">
      <g id="グループ_91170" data-name="グループ 91170">
        <path id="パス_95517" data-name="パス 95517" d="M21.066,30H2.209A2.211,2.211,0,0,1,0,27.792V2.209A2.211,2.211,0,0,1,2.209,0H21.066a2.211,2.211,0,0,1,2.208,2.209V27.792A2.211,2.211,0,0,1,21.066,30M2.209.969a1.241,1.241,0,0,0-1.24,1.24V27.792a1.241,1.241,0,0,0,1.24,1.24H21.066a1.24,1.24,0,0,0,1.239-1.24V2.209A1.24,1.24,0,0,0,21.066.969Z" fill="#007577"/>
        <path id="パス_95518" data-name="パス 95518" d="M13.214,16.019a5.107,5.107,0,1,1,2.4-9.619.485.485,0,0,1-.456.856A4.125,4.125,0,1,0,17.229,9.9a.484.484,0,1,1,.939-.237,5.111,5.111,0,0,1-4.953,6.357" transform="translate(-1.628 -1.166)" fill="#007577"/>
        <path id="パス_95519" data-name="パス 95519" d="M12.936,13.219h0a.486.486,0,0,1-.343-.142l-1.641-1.642a.484.484,0,0,1,.685-.685l1.3,1.3,5.2-5.2a.485.485,0,0,1,.686.686l-5.546,5.545a.485.485,0,0,1-.343.142" transform="translate(-2.171 -1.346)" fill="#007577"/>
        <path id="パス_95520" data-name="パス 95520" d="M17.409,25.089H9.477a.485.485,0,1,1,0-.969h7.932a.485.485,0,0,1,0,.969" transform="translate(-1.806 -4.844)" fill="#007577"/>
        <path id="パス_95521" data-name="パス 95521" d="M19.8,28.947H5.488a.485.485,0,1,1,0-.969H19.8a.485.485,0,1,1,0,.969" transform="translate(-1.005 -5.619)" fill="#007577"/>
        <path id="パス_95522" data-name="パス 95522" d="M19.8,32.8H5.488a.485.485,0,1,1,0-.969H19.8a.485.485,0,1,1,0,.969" transform="translate(-1.005 -6.393)" fill="#007577"/>
      </g>
    </g>
  </g>
</svg>
