<svg xmlns="http://www.w3.org/2000/svg" width="21" height="21" viewBox="0 0 21 21">
  <g id="Icon_feather-instagram" data-name="Icon feather-instagram" transform="translate(-2.5 -2.5)">
    <path id="パス_98148" data-name="パス 98148" d="M8,3H18a5,5,0,0,1,5,5V18a5,5,0,0,1-5,5H8a5,5,0,0,1-5-5V8A5,5,0,0,1,8,3Z" fill="none" stroke="#9d9b9b" stroke-linecap="round" stroke-linejoin="round" stroke-width="1"/>
    <path id="パス_98149" data-name="パス 98149" d="M20.022,15.348a4,4,0,1,1-3.37-3.37,4,4,0,0,1,3.37,3.37Z" transform="translate(-3.022 -2.978)" fill="none" stroke="#9d9b9b" stroke-linecap="round" stroke-linejoin="round" stroke-width="1"/>
    <path id="パス_98150" data-name="パス 98150" d="M26.25,9.75h0" transform="translate(-7.75 -2.25)" fill="none" stroke="#9d9b9b" stroke-linecap="round" stroke-linejoin="round" stroke-width="1"/>
  </g>
</svg>
