<svg id="グループ_91768" data-name="グループ 91768" xmlns="http://www.w3.org/2000/svg" xmlns:xlink="http://www.w3.org/1999/xlink" width="230" height="57.03" viewBox="0 0 230 57.03">
  <defs>
    <clipPath id="clip-path">
      <rect id="長方形_28226" data-name="長方形 28226" width="230" height="57.03" fill="none"/>
    </clipPath>
  </defs>
  <g id="グループ_91767" data-name="グループ 91767" clip-path="url(#clip-path)">
    <path id="パス_97056" data-name="パス 97056" d="M69.626,43.187q.127-2.618.232-5.322t.106-5.49V25.11q0-2.789-.106-5.47t-.232-5.47q.549.086,1.056.148a8.126,8.126,0,0,0,2.028,0q.506-.062,1.055-.148-.127,2.789-.233,5.47t-.1,5.47v2.322c0,.226.084.338.253.338.113,0,.31-.126.592-.38q1.478-1.267,3.1-2.871t3.273-3.337Q82.3,19.451,83.9,17.655t3.083-3.485c.309.057.606.107.887.148a5.672,5.672,0,0,0,.845.063,8.138,8.138,0,0,0,1.014-.063q.508-.062,1.014-.148-1.478,1.268-3.337,3t-3.738,3.547q-1.88,1.817-3.59,3.57t-2.851,3.062q3.421,3.844,6.905,7.835t7.075,8a9.385,9.385,0,0,0-1.267-.085H87.513a8.026,8.026,0,0,0-1.161.085q-1.521-1.732-3.358-3.97T79.4,34.888q-1.754-2.091-3.167-3.76t-2.091-2.344c-.226-.225-.394-.338-.507-.338-.141,0-.211.085-.211.254v3.674q0,2.787.1,5.49t.233,5.322Q72.793,43.1,71.7,43.1t-2.07.085" transform="translate(0.541 0.11)" fill="#231815"/>
    <path id="パス_97057" data-name="パス 97057" d="M118.679,43.191a6.42,6.42,0,0,0-1.007-.085h-2.015a6.422,6.422,0,0,0-1.008.085q-.266-.97-.722-2.344t-1.008-2.872q-.552-1.5-1.122-3.04T110.734,32q-1.217-.042-2.47-.063t-2.509-.021q-1.179,0-2.319.021T101.117,32Q99.9,35.293,98.912,38.27t-1.481,4.921a11.733,11.733,0,0,0-2.814,0q3.079-7.391,6.006-14.7t5.891-14.867h.723q.912,2.449,1.976,5.3t2.167,5.766q1.1,2.913,2.205,5.786t2.072,5.343q.969,2.47,1.748,4.414t1.273,2.956M101.84,30.056q.987,0,2.053.042t2.052.042q1.064,0,2.129-.022t2.128-.062l-4.22-10.729Z" transform="translate(0.735 0.106)" fill="#231815"/>
    <path id="パス_97058" data-name="パス 97058" d="M126.911,19.64q-.106-2.68-.232-5.47c.365.057.718.107,1.055.149a8.256,8.256,0,0,0,2.028,0q.506-.063,1.055-.149-.125,2.789-.232,5.47t-.106,5.47v7.264q0,2.787.106,5.49t.232,5.322q-.972-.085-2.069-.085t-2.069.085q.127-2.618.232-5.322t.106-5.49V25.11q0-2.789-.106-5.47" transform="translate(0.985 0.11)" fill="#231815"/>
    <path id="パス_97059" data-name="パス 97059" d="M148.625,16.367q-1.1,0-2.3.021t-2.408.084q-1.2.063-2.323.149t-2.006.211a5.146,5.146,0,0,0,.212-1.351,5.888,5.888,0,0,0-.212-1.31q2.787.086,5.448.149t5.449.062q2.788,0,5.448-.062t5.449-.149a5.89,5.89,0,0,0-.212,1.352,5,5,0,0,0,.212,1.309q-.887-.127-2.007-.211t-2.323-.149q-1.2-.063-2.408-.084t-2.3-.021q-.127,4.351-.126,8.743v7.264q0,2.789.1,5.49t.232,5.322q-.972-.085-2.069-.085t-2.069.085q.125-2.618.232-5.322t.1-5.49V25.11q0-4.393-.126-8.743" transform="translate(1.085 0.11)" fill="#231815"/>
    <path id="パス_97060" data-name="パス 97060" d="M169.408,19.578q-.106-2.7-.232-5.407,1.9.085,3.78.148t3.779.063q1.9,0,3.759-.063t3.759-.148a6.432,6.432,0,0,0,0,2.534q-1.351-.083-2.47-.168t-2.365-.169q-1.247-.083-2.725-.147t-3.547-.064q-.042,1.353-.106,2.577t-.062,2.789q0,1.648.021,3.209c.013,1.042.02,1.832.02,2.366q1.858,0,3.337-.042c.986-.027,1.887-.064,2.7-.106s1.569-.085,2.259-.127,1.344-.091,1.964-.147a6.653,6.653,0,0,0-.127,1.309,6.448,6.448,0,0,0,.127,1.268q-1.1-.127-2.556-.212t-2.914-.106q-1.457-.02-2.745-.042t-2.049-.021q0,.381-.02.823c-.015.3-.021.669-.021,1.119v4.182q0,2.408.021,3.97t.062,2.366h2.957q1.605,0,3.146-.063t2.914-.169a18.987,18.987,0,0,0,2.386-.316,3.019,3.019,0,0,0-.106.654q-.021.36-.021.655a3.916,3.916,0,0,0,.127,1.1q-1.9-.086-3.78-.085h-7.666q-1.9,0-3.843.085.127-2.7.232-5.386t.106-5.47V25.068q0-2.788-.106-5.49" transform="translate(1.315 0.11)" fill="#231815"/>
    <path id="パス_97061" data-name="パス 97061" d="M194.322,43.187q.127-2.618.231-5.322t.107-5.49V25.11q0-2.789-.107-5.47t-.231-5.47q.549.086,1.056.148a8.126,8.126,0,0,0,2.028,0q.506-.062,1.054-.148-.127,2.789-.232,5.47t-.1,5.47v2.322c0,.226.083.338.252.338.113,0,.31-.126.593-.38q1.478-1.267,3.1-2.871t3.273-3.337q1.648-1.731,3.253-3.527t3.083-3.485c.309.057.606.107.886.148a5.692,5.692,0,0,0,.845.063,8.154,8.154,0,0,0,1.015-.063c.339-.041.675-.091,1.014-.148q-1.478,1.268-3.338,3t-3.737,3.547q-1.882,1.817-3.59,3.57t-2.851,3.062q3.421,3.844,6.9,7.835t7.076,8a9.4,9.4,0,0,0-1.268-.085h-2.429a8.012,8.012,0,0,0-1.16.085q-1.521-1.732-3.358-3.97T204.1,34.888q-1.754-2.091-3.166-3.76t-2.092-2.344c-.226-.225-.393-.338-.506-.338-.141,0-.211.085-.211.254v3.674q0,2.787.1,5.49t.232,5.322q-.97-.086-2.068-.085c-.734,0-1.422.027-2.07.085" transform="translate(1.51 0.11)" fill="#231815"/>
    <path id="パス_97062" data-name="パス 97062" d="M224.352,19.64q-.106-2.68-.232-5.47c.365.057.718.107,1.055.149a8.256,8.256,0,0,0,2.028,0q.506-.063,1.055-.149-.125,2.789-.232,5.47t-.1,5.47v7.264q0,2.787.1,5.49t.232,5.322q-.972-.085-2.069-.085t-2.069.085q.127-2.618.232-5.322t.106-5.49V25.11q0-2.789-.106-5.47" transform="translate(1.742 0.11)" fill="#231815"/>
    <path id="パス_97063" data-name="パス 97063" d="M17.765,42.291c-.054-.406.415-.724.823-.678a2.1,2.1,0,0,1,1.058.586,18.035,18.035,0,0,0,5.223,3.287,7.938,7.938,0,0,0,6.042-.037c.4-.188.837-.546.733-.975a14.888,14.888,0,0,1-5.479.145.776.776,0,0,1-.434-.169.544.544,0,0,1,.107-.762,1.575,1.575,0,0,1,.808-.275q2.375-.342,4.753-.664a8.528,8.528,0,0,1,4.877.3c1.059.514,1.906,1.465,3.05,1.744a5.37,5.37,0,0,0,4.418-.424,21.745,21.745,0,0,0,3.71-3.161A20.5,20.5,0,0,0,32.4,6.8q-.419,0-.837.012t-.841.036c-.28.017-.561.037-.841.062s-.56.054-.839.089-.556.074-.834.117-.551.092-.825.144-.544.111-.814.174-.535.131-.8.2-.523.152-.782.236-.511.173-.763.268-.495.2-.739.3c-.313.137-.615.3-.931.433.262-.154.524-.306.791-.451A22.021,22.021,0,1,1,17.515,42.56" transform="translate(0.136 0.045)" fill="#2958a0"/>
    <path id="パス_97064" data-name="パス 97064" d="M49.335,47.3c.071-.526-.538-.936-1.065-.879a2.726,2.726,0,0,0-1.372.759,23.321,23.321,0,0,1-6.765,4.257,10.277,10.277,0,0,1-7.824-.048c-.517-.243-1.084-.706-.947-1.262a19.247,19.247,0,0,0,7.1.187.993.993,0,0,0,.561-.219.7.7,0,0,0-.137-.987,2.034,2.034,0,0,0-1.048-.357q-3.075-.441-6.154-.86c-2.122-.288-4.389-.546-6.316.389-1.371.666-2.468,1.9-3.948,2.258-1.938.474-4.012.622-5.721-.548A28.125,28.125,0,0,1,10.887,45.9,26.543,26.543,0,0,1,30.375,1.333q.543,0,1.085.015c.363.011.727.026,1.089.048s.727.047,1.09.081.726.071,1.086.115.722.094,1.08.15.715.119,1.07.187.7.144,1.054.226.692.169,1.036.265.678.2,1.014.305.661.224.987.348.642.252.957.39c.405.178.8.392,1.205.561-.339-.2-.679-.4-1.024-.584a28.518,28.518,0,1,0,7.551,44.206" transform="translate(0 0)" fill="#9cbf58"/>
    <path id="パス_97065" data-name="パス 97065" d="M30.008,38.709s-17.73-2.924-16.145-20.624c0,0,11.393-1.991,16.145,20.624" transform="translate(0.107 0.14)" fill="#9cbf58"/>
    <path id="パス_97066" data-name="パス 97066" d="M30.378,37.657S42.94,35.586,41.817,23.043c0,0-8.072-1.411-11.439,14.614" transform="translate(0.236 0.179)" fill="#9cbf58"/>
    <path id="パス_97067" data-name="パス 97067" d="M33.164,21.97a3.626,3.626,0,1,1-3.626-3.626,3.626,3.626,0,0,1,3.626,3.626" transform="translate(0.201 0.143)" fill="#9cbf58"/>
  </g>
</svg>
