<svg xmlns="http://www.w3.org/2000/svg" width="30" height="30" viewBox="0 0 30 30">
  <g id="グループ_91659" data-name="グループ 91659" transform="translate(-610 -2620)">
    <circle id="楕円形_937" data-name="楕円形 937" cx="15" cy="15" r="15" transform="translate(610 2620)" fill="#edf5f5"/>
    <g id="グループ_91659-2" data-name="グループ 91659" transform="translate(620 2627.275)">
      <g id="グループ_91661" data-name="グループ 91661" transform="translate(0 -0.001)">
        <path id="パス_97052" data-name="パス 97052" d="M41.552,72.164a.373.373,0,0,1-.373-.373c0-.227-.126-.4-.235-.4s-.235.176-.235.4a.373.373,0,0,1-.747,0c0-.227-.126-.4-.235-.4s-.235.176-.235.4a.373.373,0,0,1-.747,0c0-.227-.126-.4-.235-.4s-.235.176-.235.4a.373.373,0,0,1-.747,0,1.077,1.077,0,0,1,.981-1.149.891.891,0,0,1,.608.248.87.87,0,0,1,1.216,0,.891.891,0,0,1,.608-.248,1.077,1.077,0,0,1,.981,1.149.373.373,0,0,1-.373.373" transform="translate(-34.728 -65.366)" fill="#007577"/>
        <path id="パス_97053" data-name="パス 97053" d="M7.182,11.452a.373.373,0,0,1-.373-.373v-1.6A2.291,2.291,0,0,1,7.824,7.794,3.493,3.493,0,0,0,9.253,4.86,4.031,4.031,0,0,0,8.086,1.87,4.334,4.334,0,0,0,5,.746,4.333,4.333,0,0,0,1.914,1.87,4.031,4.031,0,0,0,.747,4.86,3.523,3.523,0,0,0,2.17,7.769,2.355,2.355,0,0,1,3.191,9.475v1.6a.373.373,0,1,1-.747,0v-1.6c0-.418-.282-.7-.78-1.156A4.253,4.253,0,0,1,0,4.86,4.759,4.759,0,0,1,1.4,1.333,5.063,5.063,0,0,1,5,0,5.063,5.063,0,0,1,8.6,1.333,4.759,4.759,0,0,1,10,4.86,4.222,4.222,0,0,1,8.324,8.348c-.491.443-.769.714-.769,1.126v1.6a.373.373,0,0,1-.373.373" transform="translate(0 0.001)" fill="#007577"/>
        <path id="パス_97054" data-name="パス 97054" d="M36.139,146.509h-1.7a1.709,1.709,0,0,1-1.707-1.707v-1.063a.373.373,0,0,1,.373-.373h4.364a.373.373,0,0,1,.373.373V144.8a1.709,1.709,0,0,1-1.707,1.707m-2.657-2.4v.689a.962.962,0,0,0,.96.96h1.7a.962.962,0,0,0,.96-.96v-.689Z" transform="translate(-30.291 -132.66)" fill="#007577"/>
        <path id="パス_97055" data-name="パス 97055" d="M42.473,174.915a1.978,1.978,0,0,1-1.976-1.976v-.234a.373.373,0,1,1,.747,0v.234a1.229,1.229,0,1,0,2.458,0v-.234a.373.373,0,1,1,.747,0v.234a1.978,1.978,0,0,1-1.976,1.976" transform="translate(-37.473 -159.463)" fill="#007577"/>
      </g>
    </g>
  </g>
</svg>
