<svg id="グループ_91304" data-name="グループ 91304" xmlns="http://www.w3.org/2000/svg" xmlns:xlink="http://www.w3.org/1999/xlink" width="25" height="30.07" viewBox="0 0 25 30.07">
  <defs>
    <clipPath id="clip-path">
      <rect id="長方形_28111" data-name="長方形 28111" width="25" height="30.07" fill="#fff"/>
    </clipPath>
  </defs>
  <g id="グループ_91305" data-name="グループ 91305" clip-path="url(#clip-path)">
    <path id="パス_95548" data-name="パス 95548" d="M4.2,0H24.129A.872.872,0,0,1,25,.87v25a.872.872,0,0,1-.255.613l0,0a.866.866,0,0,1-.611.254h-2.46V29.2a.868.868,0,0,1-.255.614l0,0a.87.87,0,0,1-.611.254H.87A.871.871,0,0,1,0,29.2V4.2a.866.866,0,0,1,.255-.614l0,0A.871.871,0,0,1,.87,3.33H3.33V.87A.869.869,0,0,1,3.585.257l0,0A.866.866,0,0,1,4.2,0M20.815,26.739H4.2a.871.871,0,0,1-.871-.869V4.185H.87a.023.023,0,0,0-.011,0,.018.018,0,0,0,0,.013v25a.015.015,0,0,0,0,.011.017.017,0,0,0,.011,0H20.8a.023.023,0,0,0,.011,0l0,0a.018.018,0,0,0,0-.011ZM24.129.854H4.2a.018.018,0,0,0-.013,0,.023.023,0,0,0,0,.011v25a.017.017,0,0,0,0,.011.023.023,0,0,0,.011,0H24.129a.019.019,0,0,0,.011,0l0,0a.024.024,0,0,0,0-.011V.87a.014.014,0,0,0,0-.011.014.014,0,0,0-.011,0" fill="#fff"/>
    <path id="パス_95549" data-name="パス 95549" d="M135.469,230.8a.428.428,0,0,1,0-.855h12.277a.428.428,0,0,1,0,.855Z" transform="translate(-127.442 -217.006)" fill="#fff"/>
    <path id="パス_95550" data-name="パス 95550" d="M244.519,171.641a.427.427,0,1,1,0-.854h6.138a.427.427,0,0,1,0,.854Z" transform="translate(-230.353 -161.176)" fill="#fff"/>
    <path id="パス_95551" data-name="パス 95551" d="M135.469,289.988a.427.427,0,0,1,0-.853h12.277a.427.427,0,0,1,0,.853Z" transform="translate(-127.442 -272.862)" fill="#fff"/>
    <path id="パス_95552" data-name="パス 95552" d="M135.469,349.149a.428.428,0,0,1,0-.855h12.277a.428.428,0,0,1,0,.855Z" transform="translate(-127.442 -328.691)" fill="#fff"/>
    <path id="パス_95553" data-name="パス 95553" d="M244.519,112.456a.428.428,0,1,1,0-.855h6.138a.428.428,0,0,1,0,.855Z" transform="translate(-230.353 -105.32)" fill="#fff"/>
    <path id="パス_95554" data-name="パス 95554" d="M132,69.818h4.4a.523.523,0,0,1,.37.155h0a.522.522,0,0,1,.153.37v5.514a.528.528,0,0,1-.153.37l0,0a.528.528,0,0,1-.37.153H132a.522.522,0,0,1-.37-.153.362.362,0,0,1-.046-.054.523.523,0,0,1-.108-.317V70.343a.528.528,0,0,1,.525-.525m4.067.855h-3.737v4.855h3.737Z" transform="translate(-124.072 -65.888)" fill="#fff"/>
  </g>
</svg>
