<svg xmlns="http://www.w3.org/2000/svg" xmlns:xlink="http://www.w3.org/1999/xlink" width="340" height="43.791" viewBox="0 0 340 43.791">
  <defs>
    <clipPath id="clip-path">
      <rect id="長方形_28142" data-name="長方形 28142" width="340" height="43.791" fill="none"/>
    </clipPath>
  </defs>
  <g id="グループ_91421" data-name="グループ 91421" clip-path="url(#clip-path)">
    <path id="パス_95586" data-name="パス 95586" d="M36.537,17.383h3.55A21.027,21.027,0,0,0,21.528,1.77V5.195A17.617,17.617,0,0,1,36.537,17.383" transform="translate(1.096 0.09)" fill="#0660ba"/>
    <path id="パス_95587" data-name="パス 95587" d="M3.443,24.161H0a21.017,21.017,0,0,0,19.976,18.4V39.147A17.605,17.605,0,0,1,3.443,24.161" transform="translate(0 1.23)" fill="#0660ba"/>
    <path id="パス_95588" data-name="パス 95588" d="M19.131,5.188V1.764A21.025,21.025,0,0,0,.5,17.383H4.048A17.614,17.614,0,0,1,19.131,5.188" transform="translate(0.025 0.09)" fill="#0660ba"/>
    <path id="パス_95589" data-name="パス 95589" d="M20.722,39.144v3.414a21.016,21.016,0,0,0,19.929-18.4H37.208A17.606,17.606,0,0,1,20.722,39.144" transform="translate(1.055 1.23)" fill="#0660ba"/>
    <path id="パス_95590" data-name="パス 95590" d="M21.081,6.046V0h-.933V6.046A16.766,16.766,0,0,0,4.718,17.473H5.6A15.926,15.926,0,0,1,20.148,6.885V17.473h.933V6.885A15.924,15.924,0,0,1,35.621,17.473h.886A16.768,16.768,0,0,0,21.081,6.046" transform="translate(0.24 0)" fill="#0660ba"/>
    <path id="パス_95591" data-name="パス 95591" d="M1.074,18.268h1.61c.653,0,1.16.236,1.16.981,0,.792-.482,1.054-1.193,1.054H1.074Zm0,2.712H2.921a1.634,1.634,0,0,0,1.741-1.74,1.6,1.6,0,0,0-1.741-1.651H.282v5.867h.792Z" transform="translate(0.014 0.896)" fill="#216cc4"/>
    <path id="パス_95592" data-name="パス 95592" d="M5.65,21.046l.941-2.582h.016l.867,2.582Zm2.109.7.58,1.708h.866L7.08,17.59h-.9L3.976,23.457h.817l.613-1.708Z" transform="translate(0.202 0.896)" fill="#216cc4"/>
    <path id="パス_95593" data-name="パス 95593" d="M10.53,18.268h1.978c.392,0,1.054.074,1.054.981,0,.867-.613,1.013-1.193,1.013H10.53Zm0,2.673h1.92c.949,0,1.047.564,1.047,1.046a7.184,7.184,0,0,0,.139,1.471h.972v-.131c-.245-.139-.286-.261-.294-.589l-.048-1.061c-.034-.818-.368-.965-.7-1.1a1.446,1.446,0,0,0,.818-1.406c0-1.241-.965-1.576-1.929-1.576H9.738v5.867h.792Z" transform="translate(0.496 0.896)" fill="#216cc4"/>
    <path id="パス_95594" data-name="パス 95594" d="M16.451,21.046l.94-2.582h.017l.867,2.582Zm2.108.7.58,1.708h.867L17.881,17.59h-.9l-2.207,5.867h.818l.613-1.708Z" transform="translate(0.752 0.896)" fill="#216cc4"/>
    <path id="パス_95595" data-name="パス 95595" d="M22.782,20.327h2.575v3.138h-.515l-.188-.761a2.394,2.394,0,0,1-1.937.916,2.354,2.354,0,0,1-1.8-.662A3.136,3.136,0,0,1,20,20.481a2.821,2.821,0,0,1,2.778-3.039,2.361,2.361,0,0,1,2.484,1.937H24.49a1.637,1.637,0,0,0-1.757-1.234c-1.053,0-1.92.842-1.92,2.377,0,1.194.393,2.419,1.954,2.419a1.863,1.863,0,0,0,1.2-.376A1.8,1.8,0,0,0,24.613,21H22.782Z" transform="translate(1.018 0.888)" fill="#216cc4"/>
    <rect id="長方形_28140" data-name="長方形 28140" width="0.792" height="5.867" transform="translate(27.723 18.486)" fill="#216cc4"/>
    <path id="パス_95596" data-name="パス 95596" d="M33.065,17.59V21.4A2.13,2.13,0,0,1,30.7,23.613,2.034,2.034,0,0,1,28.448,21.5V17.59h.792v3.694c0,1.275.777,1.626,1.488,1.626A1.428,1.428,0,0,0,32.272,21.3V17.59Z" transform="translate(1.449 0.896)" fill="#216cc4"/>
    <path id="パス_95597" data-name="パス 95597" d="M38.869,23.457V19.992c0-.172.017-.915.017-1.463h-.017l-1.651,4.928h-.784l-1.651-4.919h-.017c0,.539.017,1.282.017,1.454v3.465h-.768V17.59h1.136l1.675,4.96h.016l1.668-4.96h1.128v5.867Z" transform="translate(1.732 0.896)" fill="#216cc4"/>
    <path id="パス_95598" data-name="パス 95598" d="M48.188,21.654a11.64,11.64,0,0,1,3.679-8.621,12.113,12.113,0,0,1,8.807-3.6,11.885,11.885,0,0,1,8.712,3.633,11.873,11.873,0,0,1,3.649,8.728,11.686,11.686,0,0,1-3.665,8.7,12.561,12.561,0,0,1-17.148.4,11.675,11.675,0,0,1-4.034-9.237m3.618.045a8.592,8.592,0,0,0,2.648,6.482,8.771,8.771,0,0,0,12.393-.047,8.757,8.757,0,0,0,2.571-6.373,8.708,8.708,0,0,0-2.541-6.374,8.862,8.862,0,0,0-12.514,0A8.575,8.575,0,0,0,51.806,21.7" transform="translate(2.454 0.48)" fill="#231815"/>
    <path id="パス_95599" data-name="パス 95599" d="M78.509,19.153H88.762v-9.3h3.587v23.77H88.762v-11.1H78.509v11.1H74.923V9.855h3.587Z" transform="translate(3.815 0.502)" fill="#231815"/>
    <path id="パス_95600" data-name="パス 95600" d="M110.42,27.924H100.244L97.6,33.7H93.732L105.493,8.435,116.839,33.7h-3.925Zm-1.463-3.372-3.525-8.081-3.7,8.081Z" transform="translate(4.773 0.429)" fill="#231815"/>
    <path id="パス_95601" data-name="パス 95601" d="M127.2,23.495l7.359,10.129h-4.388L123.379,23.9h-.646v9.728h-3.587V9.855h4.2q4.71,0,6.8,1.772a6.506,6.506,0,0,1,2.309,5.2,6.752,6.752,0,0,1-1.447,4.341,6.45,6.45,0,0,1-3.818,2.324m-4.464-2.724h1.139q5.095,0,5.1-3.9,0-3.648-4.957-3.648h-1.278Z" transform="translate(6.067 0.502)" fill="#231815"/>
    <path id="パス_95602" data-name="パス 95602" d="M151.3,27.924H141.127L138.478,33.7h-3.863L146.376,8.435,157.722,33.7H153.8Zm-1.463-3.372-3.525-8.081-3.7,8.081Z" transform="translate(6.855 0.429)" fill="#231815"/>
    <path id="パス_95603" data-name="パス 95603" d="M170.474,23.973v9.652h-3.587V9.855h4.064a18.3,18.3,0,0,1,4.511.417,6.052,6.052,0,0,1,2.709,1.57,6.764,6.764,0,0,1,2.047,5.05,6.516,6.516,0,0,1-2.186,5.173,8.646,8.646,0,0,1-5.9,1.908Zm0-3.325h1.339q4.942,0,4.942-3.8,0-3.679-5.1-3.678h-1.185Z" transform="translate(8.498 0.502)" fill="#231815"/>
    <path id="パス_95604" data-name="パス 95604" d="M195.384,27.924H185.208L182.559,33.7H178.7L190.457,8.435,201.8,33.7h-3.925Zm-1.463-3.372L190.4,16.471l-3.7,8.081Z" transform="translate(9.1 0.429)" fill="#231815"/>
    <path id="パス_95605" data-name="パス 95605" d="M211.561,23.495l7.359,10.129h-4.388L207.743,23.9H207.1v9.728H203.51V9.855h4.2q4.71,0,6.8,1.772a6.506,6.506,0,0,1,2.309,5.2,6.752,6.752,0,0,1-1.447,4.341,6.45,6.45,0,0,1-3.818,2.324M207.1,20.771h1.139q5.095,0,5.1-3.9,0-3.648-4.957-3.648H207.1Z" transform="translate(10.363 0.502)" fill="#231815"/>
    <path id="パス_95606" data-name="パス 95606" d="M236.267,27.924H226.091L223.442,33.7h-3.863L231.34,8.435,242.686,33.7H238.76ZM234.8,24.552l-3.525-8.081-3.7,8.081Z" transform="translate(11.182 0.429)" fill="#231815"/>
    <path id="パス_95607" data-name="パス 95607" d="M254.874,21.269H264.7v.786a16.207,16.207,0,0,1-.632,4.742,10.085,10.085,0,0,1-2.078,3.571,10.77,10.77,0,0,1-8.421,3.726,11.574,11.574,0,0,1-8.544-3.6,11.942,11.942,0,0,1-3.556-8.682A12.354,12.354,0,0,1,253.889,9.416a12.049,12.049,0,0,1,5.2,1.139,14.992,14.992,0,0,1,4.541,3.694L261.077,16.7a8.675,8.675,0,0,0-7.127-3.9,8.518,8.518,0,0,0-6.327,2.6,8.683,8.683,0,0,0-2.556,6.4,8.933,8.933,0,0,0,8.621,8.929,7.168,7.168,0,0,0,4.756-1.786,6.358,6.358,0,0,0,2.356-4.311h-5.927Z" transform="translate(12.296 0.479)" fill="#231815"/>
    <rect id="長方形_28141" data-name="長方形 28141" width="3.587" height="23.769" transform="translate(282.133 10.357)" fill="#231815"/>
    <path id="パス_95608" data-name="パス 95608" d="M281.5,9.855V24.172a7.887,7.887,0,0,0,1,4.481,5.355,5.355,0,0,0,8.421,0,7.749,7.749,0,0,0,1-4.481V9.855h3.587v15.3a8.563,8.563,0,0,1-2.339,6.188,9.053,9.053,0,0,1-12.917,0,8.563,8.563,0,0,1-2.339-6.188V9.855Z" transform="translate(14.152 0.502)" fill="#231815"/>
    <path id="パス_95609" data-name="パス 95609" d="M298.681,33.71l5-25.554,8.158,18.473,8.452-18.473,4.5,25.554h-3.679l-2.294-14.347L311.782,34.8l-6.835-15.456L302.391,33.71Z" transform="translate(15.21 0.415)" fill="#231815"/>
  </g>
</svg>
