<svg xmlns="http://www.w3.org/2000/svg" width="38" height="26.512" viewBox="0 0 38 26.512">
  <g id="グループ_91278" data-name="グループ 91278" transform="translate(-228 -1113)">
    <path id="長方形_28107" data-name="長方形 28107" d="M2.651,1.326A1.327,1.327,0,0,0,1.326,2.651V23.86a1.327,1.327,0,0,0,1.326,1.326h32.7a1.327,1.327,0,0,0,1.326-1.326V2.651a1.327,1.327,0,0,0-1.326-1.326H2.651M2.651,0h32.7A2.651,2.651,0,0,1,38,2.651V23.86a2.651,2.651,0,0,1-2.651,2.651H2.651A2.651,2.651,0,0,1,0,23.86V2.651A2.651,2.651,0,0,1,2.651,0Z" transform="translate(228 1113)" fill="#007577"/>
    <path id="多角形_12" data-name="多角形 12" d="M6.628,2.137,2.248,8.561h8.759L6.628,2.137M6.628,0a.466.466,0,0,1,.388.205l6.157,9.031a.47.47,0,0,1-.388.734H.471a.47.47,0,0,1-.388-.734L6.24.205A.466.466,0,0,1,6.628,0Z" transform="translate(252.994 1120.07) rotate(90)" fill="#007577"/>
  </g>
</svg>
