<svg id="グループ_91286" data-name="グループ 91286" xmlns="http://www.w3.org/2000/svg" xmlns:xlink="http://www.w3.org/1999/xlink" width="15" height="20" viewBox="0 0 15 20">
  <defs>
    <clipPath id="clip-path">
      <rect id="長方形_28107" data-name="長方形 28107" width="15" height="20" fill="none"/>
    </clipPath>
  </defs>
  <g id="グループ_91285" data-name="グループ 91285" clip-path="url(#clip-path)">
    <path id="パス_95545" data-name="パス 95545" d="M19.005,59.342a.644.644,0,0,1-.2.46.224.224,0,0,1-.148.068H17.78V58.82h.873a.234.234,0,0,1,.15.065.627.627,0,0,1,.2.457" transform="translate(-14.817 -49.017)" fill="#fff"/>
    <path id="パス_95546" data-name="パス 95546" d="M8.34,10.54a1.168,1.168,0,0,0-.167-.385.794.794,0,0,0-.28-.257.809.809,0,0,0-.4-.1H6.665v2.418h.823A.793.793,0,0,0,8,12.062a.943.943,0,0,0,.3-.435,1.863,1.863,0,0,0,.1-.613,1.98,1.98,0,0,0-.055-.473M14,0H5.1A.1.1,0,0,0,5,.1V4.75A.25.25,0,0,1,4.75,5H.1a.1.1,0,0,0-.1.1V19a1,1,0,0,0,1,1H14a1,1,0,0,0,1-1V1a1,1,0,0,0-1-1M4.85,10.987a1.355,1.355,0,0,1-.43.478,1.039,1.039,0,0,1-.583.182H2.963V12.6a.425.425,0,0,1-.11.3.38.38,0,0,1-.292.123.375.375,0,0,1-.288-.123.431.431,0,0,1-.108-.3V9.423a.41.41,0,0,1,.418-.418H3.837a1.043,1.043,0,0,1,.582.178,1.306,1.306,0,0,1,.432.475,1.419,1.419,0,0,1,0,1.328m4.228,1.03a1.733,1.733,0,0,1-.587.73,1.609,1.609,0,0,1-.948.275H6.23a.415.415,0,0,1-.42-.42V9.423a.413.413,0,0,1,.42-.418H7.543a1.683,1.683,0,0,1,.742.157,1.559,1.559,0,0,1,.548.438,1.967,1.967,0,0,1,.333.643,2.63,2.63,0,0,1,.11.77,2.484,2.484,0,0,1-.2,1m3.5-2.33a.409.409,0,0,1-.3.117H10.927v.8h1.105a.42.42,0,0,1,.3.113.387.387,0,0,1,.123.3.374.374,0,0,1-.122.273.41.41,0,0,1-.3.117H10.927v1.2a.394.394,0,0,1-.127.3.416.416,0,0,1-.3.12.423.423,0,0,1-.31-.122.406.406,0,0,1-.12-.3V9.423a.41.41,0,0,1,.418-.418H12.28a.42.42,0,0,1,.3.113.391.391,0,0,1,.122.293.375.375,0,0,1-.122.275" fill="#fff"/>
    <path id="パス_95547" data-name="パス 95547" d="M4.706.947V4.456a.25.25,0,0,1-.25.25H.947a.1.1,0,0,1-.071-.171L4.535.876a.1.1,0,0,1,.171.071" transform="translate(-0.706 -0.706)" fill="#fff"/>
  </g>
</svg>
